<?xml version="1.0" encoding="utf-8"?>
<!-- Generator: Adobe Illustrator 22.0.1, SVG Export Plug-In . SVG Version: 6.00 Build 0)  -->
<svg version="1.1" id="Camada_1" xmlns="http://www.w3.org/2000/svg" xmlns:xlink="http://www.w3.org/1999/xlink" x="0px" y="0px"
	 viewBox="0 0 495 247" style="enable-background:new 0 0 495 247;" xml:space="preserve">
<style type="text/css">
	.st0{fill:#BE1622;}
</style>
<g id="XMLID_18_">
	<path id="XMLID_19_" class="st0" d="M26.6,127.1l13.9,86.3l13.9-86.3h15.2L52.3,235.4H28.7L11.4,127.1H26.6z"/>
	<path id="XMLID_21_" class="st0" d="M77.4,214.1v-65.8c0-2.9,0.6-5.6,1.7-8.2c1.1-2.6,2.6-4.9,4.5-6.8c1.9-2,4.1-3.5,6.7-4.6
		c2.5-1.1,5.3-1.7,8.3-1.7h18.1v15.3H98.6c-1.7,0-3.1,0.6-4.2,1.7c-1.1,1.1-1.7,2.6-1.7,4.3v25.9h24v15.3h-24v24.6
		c0,1.7,0.6,3.1,1.7,4.3c1.1,1.1,2.5,1.7,4.2,1.7h18.1v15.3H98.6c-3,0-5.7-0.6-8.3-1.7c-2.5-1.1-4.8-2.6-6.7-4.6s-3.4-4.2-4.5-6.8
		C78,219.9,77.4,217.1,77.4,214.1z"/>
	<path id="XMLID_23_" class="st0" d="M130,235.4V127.1h24.9c3.9,0,7.3,0.7,10.2,2s5.3,3.1,7.2,5.4s3.3,4.9,4.3,7.8
		c0.9,3,1.4,6.1,1.4,9.3v22.7c0,2-0.7,3.8-2.2,5.2l-6.9,6.6l13.1,49.3h-15.3l-10.5-37.2l-11,10.6v26.6H130z M162.6,171.3v-19.8
		c0-2.6-0.6-4.8-1.7-6.6c-1.1-1.7-3.1-2.6-6.1-2.6h-9.6v45.4L162.6,171.3z"/>
	<path id="XMLID_26_" class="st0" d="M242.5,235.4v-57.6l-14.1,57.6h-7.6l-14.3-57.7v57.7h-15.3V127.1H209l15.6,66l15.4-66h17.8
		v108.3L242.5,235.4L242.5,235.4z"/>
	<path id="XMLID_28_" class="st0" d="M271,214.1v-65.8c0-2.9,0.6-5.6,1.7-8.2s2.6-4.9,4.5-6.8c1.9-2,4.1-3.5,6.7-4.6
		c2.5-1.1,5.3-1.7,8.3-1.7h18.1v15.3h-18.1c-1.7,0-3.1,0.6-4.2,1.7s-1.7,2.6-1.7,4.3v25.9h24v15.3h-24v24.6c0,1.7,0.6,3.1,1.7,4.3
		c1.1,1.1,2.5,1.7,4.2,1.7h18.1v15.3h-18.1c-3,0-5.7-0.6-8.3-1.7c-2.5-1.1-4.8-2.6-6.7-4.6c-1.9-2-3.4-4.2-4.5-6.8
		C271.6,219.9,271,217.1,271,214.1z"/>
	<path id="XMLID_30_" class="st0" d="M323.6,235.4V127.1h15.3v93h19.8v15.3H323.6z"/>
	<path id="XMLID_32_" class="st0" d="M403,235.4v-40.3h-19.1v40.3h-15.3V127.1h15.3v52.8H403v-52.8h15.3v108.3L403,235.4L403,235.4z
		"/>
	<path id="XMLID_34_" class="st0" d="M451.8,235.9c-3.3,0-6.2-0.7-8.7-2.2s-4.6-3.4-6.3-5.7c-1.7-2.3-3-4.9-3.9-7.8
		s-1.3-5.7-1.3-8.5V151c0-3.4,0.6-6.6,1.7-9.6s2.7-5.6,4.7-7.8c2-2.2,4.5-3.9,7.3-5.2c2.8-1.3,5.9-1.9,9.3-1.9h6
		c3.4,0,6.5,0.7,9.2,2c2.7,1.4,5,3.2,6.9,5.4c1.9,2.3,3.4,4.9,4.3,7.8c1,3,1.5,6,1.5,9.2v60.7c0,3-0.5,5.9-1.4,8.9
		c-0.9,2.9-2.3,5.5-4.1,7.8s-3.9,4.1-6.4,5.5s-5.3,2.1-8.3,2.1L451.8,235.9L451.8,235.9z M467.1,211.5v-60.6c0-2.5-0.6-4.6-1.7-6.3
		c-1.1-1.7-3-2.7-5.4-2.9h-6.1c-2.6,0.3-4.5,1.3-5.5,3.1c-1,1.8-1.5,3.8-1.5,6v60.6c0,2.6,0.6,4.8,1.9,6.6c1.3,1.7,3.2,2.6,5.9,2.6
		h4.7c2.7,0,4.7-0.9,5.9-2.7C466.5,216.1,467.1,213.9,467.1,211.5z"/>
</g>
<g id="XMLID_3_">
	<path id="XMLID_4_" class="st0" d="M104.2,119.8V11.5h24.9c3.8,0,7.2,0.7,10.3,2.2c3,1.4,5.5,3.4,7.6,6c2,2.5,3.3,5.1,4.1,8
		c0.8,2.8,1.1,5.6,1.1,8.3v59.4c0,2.7-0.4,5.5-1.1,8.3c-0.8,2.8-2.1,5.5-4.1,8s-4.6,4.5-7.6,6c-3,1.4-6.4,2.2-10.3,2.2h-24.9V119.8z
		 M129.1,104.5c1.7,0,3-0.2,3.8-0.7s1.5-1,1.9-1.6c0.6-0.7,1.1-1.6,1.5-2.8c0.4-1.2,0.6-2.5,0.6-4.1V35.9c0-1.5-0.2-2.9-0.6-4.1
		c-0.4-1.2-0.8-2.1-1.3-2.8c-0.5-0.6-1.2-1.1-2-1.6c-0.9-0.5-2.1-0.7-3.8-0.7h-9.6v77.8H129.1z"/>
	<path id="XMLID_7_" class="st0" d="M165.4,98.5V32.7c0-2.9,0.6-5.6,1.7-8.2c1.1-2.6,2.6-4.9,4.5-6.8c1.9-2,4.1-3.5,6.7-4.6
		c2.5-1.1,5.3-1.7,8.3-1.7h18.1v15.3h-18.1c-1.7,0-3.1,0.6-4.2,1.7c-1.1,1.1-1.7,2.6-1.7,4.3v25.9h24v15.3h-24v24.6
		c0,1.7,0.6,3.1,1.7,4.3c1.1,1.1,2.5,1.7,4.2,1.7h18.1v15.3h-18.1c-3,0-5.7-0.6-8.3-1.7c-2.5-1.1-4.8-2.6-6.7-4.6s-3.4-4.2-4.5-6.8
		C165.9,104.3,165.4,101.5,165.4,98.5z"/>
	<path id="XMLID_9_" class="st0" d="M250.3,81.7l-30.6-23.3c-2-1.5-3.1-3.6-3.1-6.1V35.2c0-3.4,0.6-6.6,1.7-9.6s2.7-5.6,4.7-7.8
		s4.5-3.9,7.3-5.2s5.9-1.9,9.3-1.9h4.1c3.5,0,6.6,0.7,9.3,2c2.7,1.4,5,3.2,6.9,5.4c1.9,2.3,3.3,4.9,4.3,7.8c1,3,1.5,6,1.5,9.2v10.2
		h-15.3V35.1c0-2.5-0.6-4.6-1.7-6.3s-3-2.7-5.4-2.9h-4.2c-1.4,0-2.5,0.3-3.4,0.8c-0.9,0.6-1.6,1.3-2.2,2.1c-0.6,0.9-0.9,1.8-1.1,2.9
		c-0.2,1.1-0.3,2.2-0.3,3.3v13.3l30.6,23.3c2,1.6,3.1,3.7,3.1,6.1v18c0,3-0.5,5.9-1.4,8.8s-2.3,5.5-4.1,7.7
		c-1.8,2.3-3.9,4.1-6.4,5.5s-5.3,2.2-8.3,2.3h-8.4c-3.3,0-6.2-0.7-8.7-2.2s-4.6-3.4-6.4-5.8c-1.7-2.4-3-5-3.9-7.9s-1.3-5.8-1.3-8.6
		V85.3h15.3v10.2c0,2.6,0.6,4.8,1.9,6.6c1.3,1.7,3.2,2.6,5.9,2.6h2.8c2.7,0,4.7-0.9,5.9-2.7c1.2-1.8,1.8-4,1.8-6.4V81.7H250.3z"/>
	<path id="XMLID_11_" class="st0" d="M277.5,98.5V32.7c0-2.9,0.6-5.6,1.7-8.2c1.1-2.6,2.6-4.9,4.5-6.8c1.9-2,4.1-3.5,6.7-4.6
		c2.5-1.1,5.3-1.7,8.3-1.7h18.1v15.3h-18.1c-1.7,0-3.1,0.6-4.2,1.7c-1.1,1.1-1.7,2.6-1.7,4.3v25.9h24v15.3h-24v24.6
		c0,1.7,0.6,3.1,1.7,4.3c1.1,1.1,2.5,1.7,4.2,1.7h18.1v15.3h-18.1c-3,0-5.7-0.6-8.3-1.7c-2.5-1.1-4.8-2.6-6.7-4.6
		c-1.9-2-3.4-4.2-4.5-6.8C278.1,104.3,277.5,101.5,277.5,98.5z"/>
	<path id="XMLID_13_" class="st0" d="M330.1,119.8V11.5H355c3.9,0,7.3,0.7,10.2,2c2.9,1.3,5.3,3.1,7.2,5.4c1.9,2.3,3.3,4.9,4.3,7.8
		c0.9,3,1.4,6.1,1.4,9.3v22.7c0,2-0.7,3.8-2.2,5.2l-6.9,6.6l13.1,49.3h-15.3l-10.5-37.2l-11,10.6v26.6L330.1,119.8L330.1,119.8z
		 M362.7,55.7V35.9c0-2.6-0.6-4.8-1.7-6.6c-1.1-1.7-3.1-2.6-6.1-2.6h-9.6v45.4L362.7,55.7z"/>
	<path id="XMLID_16_" class="st0" d="M406.4,119.8v-93h-20.5V11.5h73.5c3.4,0,6.5,0.6,9.3,1.9c2.8,1.3,5.2,3,7.3,5.2
		c2,2.2,3.6,4.8,4.7,7.8c1.1,3,1.7,6.2,1.7,9.6v60c0,2.8-0.4,5.7-1.3,8.5c-0.9,2.9-2.2,5.5-3.9,7.8s-3.8,4.3-6.3,5.7
		c-2.5,1.5-5.4,2.2-8.7,2.2h-8.4c-3.1,0-5.8-0.7-8.3-2.1s-4.7-3.3-6.4-5.6c-1.8-2.3-3.1-4.9-4.1-7.9c-0.9-2.9-1.4-5.9-1.4-8.9V34
		h15.3v61.7c0,2.5,0.6,4.6,1.8,6.4s3.2,2.7,5.9,2.7h2.8c2.6,0,4.6-0.9,5.9-2.6c1.3-1.7,1.9-3.9,1.9-6.6V35.7c0-2.2-0.5-4.2-1.5-6
		s-2.8-2.9-5.5-3.1h-38.4v93h-15.4V119.8z"/>
</g>
</svg>
